<svg xmlns="http://www.w3.org/2000/svg" width="138.873" height="302.885" viewBox="0 0 138.873 302.885">
  <path id="API-expanded" d="M151.93,167.356v18.928a69.538,69.538,0,0,1-63.091,69.145v41.244a6.345,6.345,0,1,1-12.691,0v-47.3a6.345,6.345,0,0,1,6.345-6.345,56.809,56.809,0,0,0,56.746-56.74V173.7H25.748v12.583a56.987,56.987,0,0,0,23.23,45.794,6.345,6.345,0,1,1-7.494,10.241A69.722,69.722,0,0,1,13.057,186.29V167.356a6.345,6.345,0,0,1,6.345-6.345H57.22V116.365a6.345,6.345,0,0,1,12.691,0v44.645H95.076V116.365a6.345,6.345,0,1,1,12.691,0v44.645h37.818A6.345,6.345,0,0,1,151.93,167.356ZM88.839,47.766V6.477a6.345,6.345,0,0,0-12.691,0V47.766a69.513,69.513,0,0,0-63.091,69.113v18.934a6.345,6.345,0,0,0,6.345,6.345H38.33a6.345,6.345,0,1,0,0-12.691H25.748V116.879a56.746,56.746,0,1,1,113.492,0v12.589H126.657a6.345,6.345,0,1,0,0,12.691h18.928a6.345,6.345,0,0,0,6.345-6.345V116.879A69.513,69.513,0,0,0,88.839,47.766Z" transform="translate(-13.057 -0.133)" fill="#ff4f1f"/>
</svg>
