<svg xmlns="http://www.w3.org/2000/svg" width="304.396" height="297.822" viewBox="0 0 304.396 297.822">
  <path id="service-bell-expanded" d="M31.829,261.818H272.6a6.345,6.345,0,0,0,6.345-6.345,126.773,126.773,0,0,0-120.383-126.4V86.695h24.068a6.345,6.345,0,0,0,0-12.691H121.8a6.345,6.345,0,0,0,0,12.691h24.068v42.374a126.773,126.773,0,0,0-120.383,126.4A6.345,6.345,0,0,0,31.829,261.818ZM152.212,141.442a114.177,114.177,0,0,1,113.86,107.686H38.352a114.177,114.177,0,0,1,113.86-107.686Zm152.2,150.567a6.345,6.345,0,0,1-6.345,6.345H216.3a6.345,6.345,0,1,1,0-12.691H298.09A6.345,6.345,0,0,1,304.41,292.009Zm-113.689,0a6.345,6.345,0,0,1-6.345,6.345H6.359a6.345,6.345,0,1,1,0-12.691H184.376A6.345,6.345,0,0,1,190.722,292.009ZM145.867,42.658V6.877a6.345,6.345,0,0,1,12.691,0V42.658a6.345,6.345,0,0,1-12.691,0ZM58.86,61.459a6.345,6.345,0,1,1,8.922-9.024l25.6,25.306A6.345,6.345,0,1,1,84.5,86.758ZM210.995,86.714a6.345,6.345,0,0,1,.051-8.972l25.6-25.305a6.345,6.345,0,1,1,8.922,9.024l-25.6,25.3a6.345,6.345,0,0,1-8.972-.044Z" transform="translate(-0.014 -0.532)" fill="#ff4f1f"/>
</svg>
